<?xml version="1.0" encoding="UTF-8" standalone="no"?>
<!DOCTYPE svg PUBLIC "-//W3C//DTD SVG 1.1//EN" "http://www.w3.org/Graphics/SVG/1.1/DTD/svg11.dtd">
<svg version="1.1" xmlns="http://www.w3.org/2000/svg" xmlns:xlink="http://www.w3.org/1999/xlink" preserveAspectRatio="xMidYMid meet" viewBox="0 0 640 640" width="640" height="640"><defs><path d="M640 320C640 496.61 496.61 640 320 640C143.39 640 0 496.61 0 320C0 143.39 143.39 0 320 0C496.61 0 640 143.39 640 320Z" id="a1KyVMMbbW"></path><path d="M154.63 526.78C152.65 527.69 150.39 526.24 150.4 524.06C150.96 439.25 152.61 188.51 153.17 103.46C153.18 102.17 154.74 101.52 155.66 102.43C214.22 160.22 386.34 330.05 444.62 387.57C446.48 389.4 445.94 392.53 443.56 393.63C384.92 420.65 213.39 499.7 154.63 526.78Z" id="a16wTmUwbA"></path><path d="" id="a1ETRmj7zW"></path><path d="M474.67 534.86C467.38 307.21 462.83 164.93 461 108.01C460.91 105.15 457.22 104.07 455.6 106.42C431.87 140.84 372.55 226.88 277.63 364.54L169.18 497.54L140 520.73" id="c1XwVv3O"></path></defs><g><g><use xlink:href="#a1KyVMMbbW" opacity="1" fill="#287d8d" fill-opacity="1"></use></g><g><use xlink:href="#a16wTmUwbA" opacity="1" fill="#de3341" fill-opacity="0"></use><g><use xlink:href="#a16wTmUwbA" opacity="1" fill-opacity="0" stroke="#ffffff" stroke-width="40" stroke-opacity="1"></use></g></g><g><g><use xlink:href="#a1ETRmj7zW" opacity="1" fill-opacity="0" stroke="#000000" stroke-width="2" stroke-opacity="1"></use></g></g><g><g><use xlink:href="#c1XwVv3O" opacity="1" fill-opacity="0" stroke="#ffffff" stroke-width="40" stroke-opacity="1"></use></g></g></g></svg>