<svg  viewBox="0 0 370 55" fill="none" xmlns="http://www.w3.org/2000/svg">
<style>
  path {
    fill: var(--font-color);
  }
</style>
<g clip-path="url(#clip0_1_2)">
<path fill="white" d="M326.153 54.18V52.374C329.249 52.374 331.055 51.8007 331.571 50.654V6.106C328.016 5.81934 326.21 5.676 326.153 5.676V3.698C327.242 3.698 329.364 3.096 332.517 1.892C335.728 0.630666 337.992 0 339.311 0V19.436C342.407 16.7987 345.818 15.48 349.545 15.48C354.992 15.48 358.862 16.3687 361.155 18.146C363.506 19.9233 364.681 22.9907 364.681 27.348V50.654C365.197 51.8007 367.003 52.374 370.099 52.374V54.18H351.523V52.374C354.619 52.374 356.425 51.8007 356.941 50.654V26.746C356.941 21.1847 354.304 18.404 349.029 18.404C345.417 18.404 342.178 19.6653 339.311 22.188V50.654C339.827 51.8007 341.633 52.374 344.729 52.374V54.18H326.153Z" />
<path fill="white" d="M307.295 52.46C308.901 52.46 310.649 51.944 312.541 50.912C314.491 49.88 315.465 48.332 315.465 46.268C315.465 42.9427 312.054 40.076 305.231 37.668C303.569 37.0947 302.193 36.55 301.103 36.034C300.071 35.518 298.925 34.8013 297.663 33.884C296.402 32.9667 295.456 31.8487 294.825 30.53C294.195 29.2113 293.879 27.6633 293.879 25.886C293.879 22.6753 295.055 20.1527 297.405 18.318C299.756 16.426 302.594 15.48 305.919 15.48C307.869 15.48 309.847 15.91 311.853 16.77C313.917 17.63 315.093 18.06 315.379 18.06C316.067 18.06 316.411 17.4867 316.411 16.34H318.389V26.66H316.497C316.153 24.252 314.978 22.2167 312.971 20.554C311.022 18.8913 308.757 18.06 306.177 18.06C304.343 18.06 302.795 18.49 301.533 19.35C300.329 20.21 299.727 21.3853 299.727 22.876C299.727 23.736 299.899 24.5387 300.243 25.284C300.587 25.972 300.931 26.5453 301.275 27.004C301.619 27.4053 302.25 27.864 303.167 28.38C304.142 28.896 304.859 29.2687 305.317 29.498C305.833 29.67 306.722 29.9853 307.983 30.444C309.302 30.9027 310.191 31.218 310.649 31.39C313.631 32.5367 316.182 34.1707 318.303 36.292C320.425 38.356 321.485 40.764 321.485 43.516C321.485 47.0133 320.081 49.8227 317.271 51.944C314.462 54.008 310.907 55.04 306.607 55.04C304.543 55.04 302.537 54.5527 300.587 53.578C298.638 52.6033 297.549 52.116 297.319 52.116C296.975 52.116 296.574 52.3453 296.115 52.804C295.657 53.2627 295.427 53.7213 295.427 54.18H293.363V42.054H295.255C295.657 44.978 297.004 47.4433 299.297 49.45C301.648 51.4567 304.314 52.46 307.295 52.46Z" />
<path fill="white" d="M269.128 54.18V52.374C272.224 52.374 274.03 51.8007 274.546 50.654V6.106C270.991 5.81934 269.185 5.676 269.128 5.676V3.698C270.217 3.698 272.338 3.096 275.492 1.892C278.702 0.630666 280.967 0 282.286 0V50.654C282.802 51.8007 284.608 52.374 287.704 52.374V54.18H269.128Z" />
<path fill="white" d="M249.27 54.18V52.374C251.908 52.374 253.57 52.03 254.258 51.342L249.442 38.184H232.93L228.458 50.826C229.032 51.858 230.809 52.374 233.79 52.374V54.18H219.686V52.374C222.897 52.374 224.703 51.772 225.104 50.568L241.788 3.87H245.916L262.6 50.568C263.002 51.772 264.836 52.374 268.104 52.374V54.18H249.27ZM241.1 15.308L233.962 35.346H248.41L241.1 15.308Z" />
<path fill="white" d="M184.741 17.2V6.106C184.741 6.106 182.935 5.96267 179.323 5.676V3.698C180.412 3.698 182.533 3.096 185.687 1.892C188.897 0.630666 191.162 0 192.481 0V48.934L197.899 49.364V51.342C196.809 51.342 194.659 51.9727 191.449 53.234C188.295 54.438 186.059 55.04 184.741 55.04V52.202C181.989 54.094 178.549 55.04 174.421 55.04C172.529 55.04 170.637 54.7247 168.745 54.094C166.91 53.406 165.047 52.374 163.155 50.998C161.32 49.5647 159.801 47.472 158.597 44.72C157.45 41.968 156.877 38.7573 156.877 35.088C156.877 28.6667 158.654 23.736 162.209 20.296C165.821 16.856 170.522 15.136 176.313 15.136C179.581 15.136 182.39 15.824 184.741 17.2ZM184.741 19.866C182.677 18.662 180.039 18.06 176.829 18.06C173.675 18.06 170.923 19.5793 168.573 22.618C166.222 25.6567 165.047 29.8133 165.047 35.088C165.047 38.5853 166.05 42.312 168.057 46.268C170.121 50.1667 172.529 52.116 175.281 52.116C179.065 52.116 182.218 51.1987 184.741 49.364V19.866Z" />
<path fill="white" d="M133.597 54.18V52.374C136.693 52.374 138.499 51.8007 139.015 50.654V21.586C135.46 21.2993 133.654 21.156 133.597 21.156V19.178C134.686 19.178 136.808 18.576 139.961 17.372C143.172 16.1107 145.436 15.48 146.755 15.48V50.654C147.271 51.8007 149.077 52.374 152.173 52.374V54.18H133.597ZM142.627 9.97601C141.366 9.97601 140.248 9.51734 139.273 8.6C138.356 7.62533 137.897 6.39267 137.897 4.902C137.897 3.58334 138.298 2.43667 139.101 1.462C139.961 0.487334 141.05 0 142.369 0C143.63 0 144.748 0.487334 145.723 1.462C146.698 2.43667 147.185 3.66934 147.185 5.16C147.185 6.47867 146.755 7.62533 145.895 8.6C145.035 9.51734 143.946 9.97601 142.627 9.97601Z" />
<path fill="white" d="M105.613 16.34V18.146C103.95 18.146 102.746 18.2607 102.001 18.49L112.235 43.688L122.039 19.092C121.236 18.4613 119.631 18.146 117.223 18.146V16.34H131.327V18.146C128.173 18.146 126.396 18.6907 125.995 19.78L112.235 54.18H108.021L94.3467 19.866C93.8307 18.7193 92.0247 18.146 88.9287 18.146V16.34H105.613Z" />
<path fill="white" d="M58.5942 22.704C59.3969 22.704 60.0849 22.9907 60.6582 23.564C61.2889 24.1373 61.6042 25.026 61.6042 26.23C61.6042 27.2047 61.2029 27.95 60.4002 28.466C59.6549 28.982 58.7662 29.24 57.7342 29.24C56.6449 29.24 55.7562 28.8673 55.0682 28.122C54.3802 27.3193 54.0362 26.2587 54.0362 24.94C54.0362 21.9587 55.2689 19.6367 57.7342 17.974C60.1996 16.3113 63.6969 15.48 68.2262 15.48C73.5582 15.48 77.4569 16.7987 79.9222 19.436C82.4449 22.0733 83.7062 25.5707 83.7062 29.928V46.956C83.7062 48.7907 83.9929 50.138 84.5662 50.998C85.1969 51.858 85.9422 52.288 86.8022 52.288C87.5476 52.288 88.2069 52.0873 88.7802 51.686C89.4109 51.2847 89.7262 50.7973 89.7262 50.224H91.2742C91.2742 51.8293 90.6722 53.0047 89.4682 53.75C88.3216 54.4953 86.2862 54.868 83.3622 54.868C80.4956 54.868 78.4602 53.6927 77.2562 51.342C73.8736 53.8073 69.6596 55.04 64.6142 55.04C56.0142 55.04 51.7142 51.5427 51.7142 44.548C51.7142 43.0573 52.2302 41.71 53.2622 40.506C54.3516 39.302 55.8996 38.2987 57.9062 37.496C59.9129 36.6933 61.8049 36.0627 63.5822 35.604C65.3596 35.088 67.5669 34.5433 70.2042 33.97C72.8989 33.3393 74.8195 32.852 75.9662 32.508C75.9662 27.692 75.3356 24.166 74.0742 21.93C72.8129 19.694 70.5769 18.576 67.3662 18.576C62.2062 18.576 59.2822 19.952 58.5942 22.704ZM76.4822 49.192C76.1382 47.9307 75.9662 46.3827 75.9662 44.548V34.4C75.3355 34.6293 74.2462 34.9447 72.6982 35.346C71.2076 35.7473 69.9749 36.0913 69.0002 36.378C68.0829 36.6647 66.9649 37.0947 65.6462 37.668C64.3276 38.2413 63.2955 38.8147 62.5502 39.388C61.8049 39.9613 61.1456 40.7353 60.5722 41.71C59.9989 42.6273 59.7122 43.6307 59.7122 44.72C59.7122 47.472 60.2282 49.3927 61.2602 50.482C62.3496 51.5713 63.9549 52.116 66.0762 52.116C69.8602 52.116 73.3289 51.1413 76.4822 49.192Z" />
<path fill="white" d="M0 54.18V52.374C3.096 52.374 4.902 51.8007 5.418 50.654V7.396C4.902 6.24934 3.096 5.676 0 5.676V3.87H19.78C27.4053 3.87 33.54 6.192 38.184 10.836C42.828 15.4227 45.15 21.4427 45.15 28.896C45.15 36.3493 42.8853 42.4267 38.356 47.128C33.8267 51.8293 27.9787 54.18 20.812 54.18H0ZM13.33 6.364V51.256H20.812C22.6467 51.256 24.424 50.8547 26.144 50.052C27.9213 49.192 29.6127 47.9307 31.218 46.268C32.8233 44.6053 34.1133 42.2833 35.088 39.302C36.0627 36.3207 36.55 32.8807 36.55 28.982C36.55 21.5287 34.8587 15.91 31.476 12.126C28.1507 8.28467 24.252 6.364 19.78 6.364H13.33Z" />
</g>
<defs>
<clipPath id="clip0_1_2">
<rect width="370" height="55"  fill="white"/>
</clipPath>
</defs>
</svg>
